<svg width="16" height="16" viewBox="0 0 16 16" fill="none" xmlns="http://www.w3.org/2000/svg">
<path d="M14.3715 1.52817H13.265V0.547004C13.265 0.358169 13.1119 0.205124 12.9231 0.205124C12.7342 0.205124 12.5812 0.358169 12.5812 0.547004V1.52817H3.38462V0.547004C3.38462 0.358169 3.23157 0.205124 3.04274 0.205124C2.8539 0.205124 2.70085 0.358169 2.70085 0.547004V1.52817H1.62847C0.730502 1.52817 0 2.29714 0 3.23223V14.0787C0 15.0136 0.730502 15.7846 1.62847 15.7846H14.3715C15.2695 15.7846 16 15.0136 16 14.0787V3.2321C16 2.29714 15.2695 1.52817 14.3715 1.52817ZM1.62847 2.21193H2.70085V2.9614C2.70085 3.15024 2.8539 3.30328 3.04274 3.30328C3.23157 3.30328 3.38462 3.15024 3.38462 2.9614V2.21193H12.5812V2.9614C12.5812 3.15024 12.7342 3.30328 12.9231 3.30328C13.1119 3.30328 13.265 3.15024 13.265 2.9614V2.21193H14.3715C14.8924 2.21193 15.3162 2.67414 15.3162 3.2321V4.74185H0.683761V3.23223C0.683761 2.67427 1.10764 2.21193 1.62847 2.21193ZM14.3715 15.1008H1.62847C1.10764 15.1008 0.683761 14.6366 0.683761 14.0787V5.42561H15.3162V14.0787C15.3162 14.6366 14.8924 15.1008 14.3715 15.1008Z" fill="#5981A6"/>
<path d="M6.8742 6.82735H6.12366C5.93483 6.82735 5.78178 6.98039 5.78178 7.16923C5.78178 7.35806 5.93483 7.51111 6.12366 7.51111H6.8742C7.06303 7.51111 7.21608 7.35806 7.21608 7.16923C7.21608 6.98039 7.06303 6.82735 6.8742 6.82735Z" fill="#5981A6"/>
<path d="M9.85497 6.82735H9.1043C8.91547 6.82735 8.76242 6.98039 8.76242 7.16923C8.76242 7.35806 8.91547 7.51111 9.1043 7.51111H9.85483C10.0437 7.51111 10.1967 7.35806 10.1967 7.16923C10.1967 6.98039 10.0437 6.82735 9.85483 6.82735H9.85497Z" fill="#5981A6"/>
<path d="M12.8571 6.82735H12.1066C11.9177 6.82735 11.7647 6.98039 11.7647 7.16923C11.7647 7.35806 11.9177 7.51111 12.1066 7.51111H12.8571C13.0459 7.51111 13.199 7.35806 13.199 7.16923C13.199 6.98039 13.0459 6.82735 12.8571 6.82735Z" fill="#5981A6"/>
<path d="M6.8742 9.90425H6.12366C5.93483 9.90425 5.78178 10.0573 5.78178 10.2461C5.78178 10.435 5.93483 10.588 6.12366 10.588H6.8742C7.06303 10.588 7.21608 10.435 7.21608 10.2461C7.21608 10.0573 7.06303 9.90425 6.8742 9.90425Z" fill="#5981A6"/>
<path d="M3.87206 9.90425H3.12139C2.93256 9.90425 2.77951 10.0573 2.77951 10.2461C2.77951 10.435 2.93256 10.588 3.12139 10.588H3.87193C4.06077 10.588 4.21381 10.435 4.21381 10.2461C4.21381 10.0573 4.06077 9.90425 3.87193 9.90425H3.87206Z" fill="#5981A6"/>
<path d="M9.85497 9.90425H9.1043C8.91547 9.90425 8.76242 10.0573 8.76242 10.2461C8.76242 10.435 8.91547 10.588 9.1043 10.588H9.85483C10.0437 10.588 10.1967 10.435 10.1967 10.2461C10.1967 10.0573 10.0437 9.90425 9.85483 9.90425H9.85497Z" fill="#5981A6"/>
<path d="M12.8571 9.90425H12.1066C11.9177 9.90425 11.7647 10.0573 11.7647 10.2461C11.7647 10.435 11.9177 10.588 12.1066 10.588H12.8571C13.0459 10.588 13.199 10.435 13.199 10.2461C13.199 10.0573 13.0459 9.90425 12.8571 9.90425Z" fill="#5981A6"/>
<path d="M6.8742 13.0154H6.12366C5.93483 13.0154 5.78178 13.1684 5.78178 13.3572C5.78178 13.5461 5.93483 13.6991 6.12366 13.6991H6.8742C7.06303 13.6991 7.21608 13.5461 7.21608 13.3572C7.21608 13.1684 7.06303 13.0154 6.8742 13.0154Z" fill="#5981A6"/>
<path d="M3.87206 13.0154H3.12139C2.93256 13.0154 2.77951 13.1684 2.77951 13.3572C2.77951 13.5461 2.93256 13.6991 3.12139 13.6991H3.87193C4.06077 13.6991 4.21381 13.5461 4.21381 13.3572C4.21381 13.1684 4.06077 13.0154 3.87193 13.0154H3.87206Z" fill="#5981A6"/>
<path d="M9.85497 13.0154H9.1043C8.91547 13.0154 8.76242 13.1684 8.76242 13.3572C8.76242 13.5461 8.91547 13.6991 9.1043 13.6991H9.85483C10.0437 13.6991 10.1967 13.5461 10.1967 13.3572C10.1967 13.1684 10.0437 13.0154 9.85483 13.0154H9.85497Z" fill="#5981A6"/>
</svg>
