<svg width="17" height="17" viewBox="0 0 17 17" fill="none" xmlns="http://www.w3.org/2000/svg">
<path d="M7.70734 0.966252C8.0649 0.19186 9.16555 0.191862 9.52312 0.966254L11.205 4.60868C11.3507 4.92434 11.65 5.14164 11.9952 5.18254L15.9809 5.65461C16.8287 5.75502 17.1689 6.80296 16.5419 7.38221L13.5966 10.1031C13.3409 10.3393 13.2265 10.6914 13.2944 11.0327L14.0764 14.9645C14.2429 15.8013 13.3523 16.4488 12.6076 16.0324L9.10328 14.0729C8.80001 13.9033 8.43045 13.9033 8.12717 14.0729L4.62289 16.0324C3.8782 16.4488 2.9876 15.8013 3.15405 14.9645L3.9361 11.0327C4.004 10.6914 3.88953 10.3393 3.63389 10.1031L0.688558 7.38221C0.0615355 6.80296 0.401802 5.75502 1.24951 5.65461L5.23522 5.18254C5.58049 5.14164 5.87974 4.92434 6.02549 4.60868L7.70734 0.966252Z" fill="#DBE3ED"/>
</svg>
