<svg width="20" height="20" viewBox="0 0 20 20" fill="none" xmlns="http://www.w3.org/2000/svg">
<path d="M18.9844 9.72657H10.6602L12.1481 8.2386C12.1994 8.18732 12.2282 8.11776 12.2282 8.04524C12.2282 7.97272 12.1994 7.90316 12.1481 7.85188C12.0969 7.8006 12.0273 7.77179 11.9548 7.77179C11.8823 7.77179 11.8127 7.8006 11.7614 7.85188L9.80705 9.80626C9.79416 9.81919 9.78259 9.83337 9.77252 9.8486C9.76861 9.85454 9.76596 9.86094 9.76252 9.86704C9.75144 9.88378 9.74355 9.90243 9.73924 9.92204C9.73674 9.93016 9.73361 9.93766 9.73189 9.94657C9.72487 9.9819 9.72487 10.0183 9.73189 10.0536C9.73361 10.062 9.73674 10.0692 9.73908 10.078C9.74138 10.087 9.74414 10.0958 9.74736 10.1045C9.752 10.1143 9.75721 10.1238 9.76299 10.133C9.76642 10.1391 9.76908 10.1456 9.77314 10.1516C9.78322 10.1668 9.79478 10.181 9.80767 10.1939L11.7614 12.1481C11.8127 12.1994 11.8823 12.2282 11.9548 12.2282C12.0273 12.2282 12.0969 12.1994 12.1481 12.1481C12.1994 12.0969 12.2282 12.0273 12.2282 11.9548C12.2282 11.8822 12.1994 11.8127 12.1481 11.7614L10.6602 10.2734H18.9844C19.0569 10.2734 19.1265 10.2446 19.1777 10.1934C19.229 10.1421 19.2578 10.0725 19.2578 10C19.2578 9.92749 19.229 9.85794 19.1777 9.80666C19.1265 9.75538 19.0569 9.72657 18.9844 9.72657Z" fill="#5981A6"/>
<path d="M15 11.2891C14.9275 11.2891 14.858 11.3179 14.8067 11.3691C14.7554 11.4204 14.7266 11.49 14.7266 11.5625V17.3281H7.68893V2.67187H14.7266V8.4375C14.7266 8.51002 14.7554 8.57957 14.8067 8.63085C14.858 8.68212 14.9275 8.71093 15 8.71093C15.0725 8.71093 15.1421 8.68212 15.1934 8.63085C15.2447 8.57957 15.2735 8.51002 15.2735 8.4375V2.39843C15.2735 2.32591 15.2447 2.25636 15.1934 2.20508C15.1421 2.1538 15.0725 2.125 15 2.125H7.68893V1.01562C7.68896 0.970046 7.67759 0.925189 7.65587 0.885126C7.63414 0.845064 7.60275 0.811066 7.56454 0.786225C7.52633 0.761384 7.48252 0.746487 7.43709 0.742889C7.39165 0.73929 7.34604 0.747104 7.3044 0.76562L1.0844 3.53015C1.03607 3.55166 0.995007 3.58673 0.966193 3.6311C0.93738 3.67547 0.922049 3.72725 0.922058 3.78015V16.22C0.922049 16.2729 0.93738 16.3247 0.966193 16.369C0.995007 16.4134 1.03607 16.4485 1.0844 16.47L7.3044 19.2344C7.34604 19.2529 7.39165 19.2607 7.43709 19.2571C7.48252 19.2535 7.52633 19.2386 7.56454 19.2138C7.60275 19.1889 7.63414 19.1549 7.65587 19.1149C7.67759 19.0748 7.68896 19.0299 7.68893 18.9844V17.875H15C15.0725 17.875 15.1421 17.8462 15.1934 17.7949C15.2447 17.7436 15.2735 17.6741 15.2735 17.6016V11.5625C15.2735 11.49 15.2447 11.4204 15.1934 11.3691C15.1421 11.3179 15.0725 11.2891 15 11.2891ZM7.14206 18.5637L1.46878 16.0422V3.95781L7.14206 1.43625V18.5637Z" fill="#5981A6"/>
<path d="M2.04309 15.1692C2.11561 15.1692 2.18516 15.1404 2.23644 15.0892C2.28772 15.0379 2.31653 14.9683 2.31653 14.8958V10.4167C2.31653 10.3442 2.28772 10.2747 2.23644 10.2234C2.18516 10.1721 2.11561 10.1433 2.04309 10.1433C1.97057 10.1433 1.90102 10.1721 1.84974 10.2234C1.79846 10.2747 1.76965 10.3442 1.76965 10.4167V14.8958C1.76965 14.9683 1.79846 15.0379 1.84974 15.0892C1.90102 15.1404 1.97057 15.1692 2.04309 15.1692Z" fill="#5981A6"/>
</svg>
