<svg width="40" height="40" viewBox="0 0 40 40" fill="none" xmlns="http://www.w3.org/2000/svg">
<path d="M40 19.9999C40 26.6031 34.6667 31.9999 28 31.9999C21.3968 31.9999 16 26.6031 16 19.9999C16 13.3967 21.3333 7.99988 27.9365 7.99988C34.6667 7.99988 40 13.3967 40 19.9999Z" fill="#FFB600"/>
<path d="M28 7.99988C34.6032 7.99988 40 13.3967 40 19.9999C40 26.6031 34.6667 31.9999 28 31.9999C21.3968 31.9999 16 26.6031 16 19.9999" fill="#F7981D"/>
<path d="M28 7.99988C34.6032 7.99988 40 13.3967 40 19.9999C40 26.6031 34.6667 31.9999 28 31.9999" fill="#FF8500"/>
<path d="M11.873 7.99988C5.33333 8.06337 0 13.3967 0 19.9999C0 26.6031 5.33333 31.9999 12 31.9999C15.1111 31.9999 17.9048 30.7935 20.0635 28.8888C20.5079 28.5078 20.8889 28.0634 21.2698 27.6189H18.7937C18.4762 27.238 18.1587 26.7935 17.9048 26.4126H22.1587C22.4127 26.0316 22.6667 25.5872 22.8571 25.1427H17.2064C17.0159 24.7618 16.8254 24.3173 16.6984 23.8729H23.3016C23.6825 22.6665 23.9365 21.3967 23.9365 20.0634C23.9365 19.1745 23.8095 18.3491 23.6825 17.5237H16.3175C16.381 17.0792 16.5079 16.6983 16.6349 16.2538H23.2381C23.1111 15.8094 22.9206 15.365 22.7302 14.984H17.1429C17.3333 14.5396 17.5873 14.1586 17.8413 13.7142H22.0952C21.8413 13.2697 21.5238 12.8253 21.1429 12.4443H18.7937C19.1746 11.9999 19.5556 11.6189 20 11.238C17.9048 9.26972 15.0476 8.12686 11.9365 8.12686C11.9365 7.99988 11.9365 7.99988 11.873 7.99988Z" fill="#FF5050"/>
<path d="M0 20C0 26.6031 5.33333 32 12 32C15.1111 32 17.9048 30.7936 20.0635 28.8889C20.5079 28.5079 20.8889 28.0635 21.2698 27.619H18.7937C18.4762 27.2381 18.1587 26.7936 17.9048 26.4127H22.1587C22.4127 26.0317 22.6667 25.5873 22.8571 25.1428H17.2064C17.0159 24.7619 16.8254 24.3174 16.6984 23.873H23.3016C23.6825 22.6666 23.9365 21.3968 23.9365 20.0635C23.9365 19.1746 23.8095 18.3492 23.6825 17.5238H16.3175C16.381 17.0793 16.5079 16.6984 16.6349 16.2539H23.2381C23.1111 15.8095 22.9206 15.365 22.7302 14.9841H17.1429C17.3333 14.5397 17.5873 14.1587 17.8413 13.7143H22.0952C21.8413 13.2698 21.5238 12.8254 21.1429 12.4444H18.7937C19.1746 12 19.5556 11.619 20 11.2381C17.9048 9.26981 15.0476 8.12695 11.9365 8.12695H11.873" fill="#E52836"/>
<path d="M12 32C15.1111 32 17.9048 30.7936 20.0635 28.8889C20.508 28.5079 20.8889 28.0635 21.2699 27.619H18.7937C18.4762 27.2381 18.1588 26.7936 17.9048 26.4127H22.1588C22.4127 26.0317 22.6667 25.5873 22.8572 25.1428H17.2064C17.0159 24.7619 16.8254 24.3174 16.6984 23.873H23.3016C23.6826 22.6666 23.9365 21.3968 23.9365 20.0635C23.9365 19.1746 23.8096 18.3492 23.6826 17.5238H16.3175C16.381 17.0793 16.508 16.6984 16.635 16.2539H23.2381C23.1111 15.8095 22.9207 15.365 22.7302 14.9841H17.1429C17.3334 14.5397 17.5873 14.1587 17.8413 13.7143H22.0953C21.8413 13.2698 21.5238 12.8254 21.1429 12.4444H18.7937C19.1746 12 19.5556 11.619 20 11.2381C17.9048 9.26981 15.0476 8.12695 11.9365 8.12695H11.873" fill="#CB2026"/>
<path d="M16.2539 23.0476L16.4444 21.9683C16.3809 21.9683 16.2539 22.0318 16.1269 22.0318C15.6825 22.0318 15.619 21.7778 15.6825 21.6508L16.0635 19.4286H16.7619L16.9523 18.2222H16.3174L16.4444 17.4603H15.1746C15.1746 17.4603 14.4127 21.6508 14.4127 22.1587C14.4127 22.9206 14.8571 23.2381 15.4285 23.2381C15.8095 23.2381 16.1269 23.1111 16.2539 23.0476Z" fill="white"/>
<path d="M16.6984 21.0159C16.6984 22.7937 17.9047 23.2382 18.9206 23.2382C19.873 23.2382 20.2539 23.0477 20.2539 23.0477L20.5079 21.8413C20.5079 21.8413 19.8095 22.1588 19.1746 22.1588C17.7777 22.1588 18.0317 21.1429 18.0317 21.1429H20.6349C20.6349 21.1429 20.8253 20.3175 20.8253 20.0001C20.8253 19.1747 20.3809 18.1588 18.9841 18.1588C17.6507 18.0318 16.6984 19.4286 16.6984 21.0159ZM18.9206 19.1747C19.619 19.1747 19.492 20.0001 19.492 20.0636H18.0952C18.0952 20.0001 18.2222 19.1747 18.9206 19.1747Z" fill="white"/>
<path d="M26.9841 23.0475L27.238 21.6507C27.238 21.6507 26.6031 21.9681 26.1587 21.9681C25.2698 21.9681 24.8888 21.2697 24.8888 20.5078C24.8888 18.984 25.6507 18.1586 26.5396 18.1586C27.1745 18.1586 27.6825 18.5396 27.6825 18.5396L27.873 17.2063C27.873 17.2063 27.1111 16.8888 26.4126 16.8888C24.9523 16.8888 23.492 18.1586 23.492 20.5713C23.492 22.1586 24.2539 23.238 25.7777 23.238C26.2857 23.238 26.9841 23.0475 26.9841 23.0475Z" fill="white"/>
<path d="M9.26981 18.0319C8.38092 18.0319 7.746 18.2858 7.746 18.2858L7.55553 19.3652C7.55553 19.3652 8.12695 19.1112 8.95235 19.1112C9.39679 19.1112 9.77774 19.1747 9.77774 19.5557C9.77774 19.8096 9.71425 19.8731 9.71425 19.8731C9.71425 19.8731 9.3333 19.8731 9.14282 19.8731C8.06346 19.8731 6.85712 20.3176 6.85712 21.7779C6.85712 22.9207 7.61902 23.1747 8.06346 23.1747C8.95235 23.1747 9.3333 22.6033 9.39679 22.6033L9.3333 23.1112H10.4762L10.9841 19.6192C10.9841 18.0954 9.71425 18.0319 9.26981 18.0319ZM9.52377 20.889C9.52377 21.0795 9.39679 22.0953 8.63489 22.0953C8.25394 22.0953 8.12695 21.7779 8.12695 21.5874C8.12695 21.2699 8.31743 20.8255 9.26981 20.8255C9.46028 20.889 9.52377 20.889 9.52377 20.889Z" fill="white"/>
<path d="M12.1904 23.1742C12.5079 23.1742 14.0952 23.2377 14.0952 21.5234C14.0952 19.9361 12.5714 20.2536 12.5714 19.6187C12.5714 19.3012 12.8253 19.1742 13.2698 19.1742C13.4603 19.1742 14.1587 19.2377 14.1587 19.2377L14.3492 18.0949C14.3492 18.0949 13.9047 17.9679 13.1428 17.9679C12.1904 17.9679 11.238 18.3488 11.238 19.6187C11.238 21.079 12.8253 20.952 12.8253 21.5234C12.8253 21.9044 12.3809 21.9679 12.0634 21.9679C11.492 21.9679 10.9206 21.7774 10.9206 21.7774L10.7301 22.9203C10.7936 23.0472 11.1111 23.1742 12.1904 23.1742Z" fill="white"/>
<path d="M37.5238 17.0156L37.2698 18.7299C37.2698 18.7299 36.7619 18.095 36.0635 18.095C34.9206 18.095 33.9047 19.4918 33.9047 21.1426C33.9047 22.1585 34.4127 23.2378 35.492 23.2378C36.2539 23.2378 36.6984 22.7299 36.6984 22.7299L36.6349 23.1744H37.9047L38.8571 17.0791L37.5238 17.0156ZM36.9523 20.3807C36.9523 21.0791 36.6349 21.968 35.9365 21.968C35.492 21.968 35.2381 21.5871 35.2381 20.9521C35.2381 19.9363 35.6825 19.3013 36.2539 19.3013C36.6984 19.3013 36.9523 19.6188 36.9523 20.3807Z" fill="white"/>
<path d="M2.34917 23.1109L3.11108 18.5394L3.23806 23.1109H4.12695L5.77774 18.5394L5.07933 23.1109H6.41266L7.42854 17.0156H5.3333L4.06346 20.7617L3.99997 17.0156H2.1587L1.14282 23.1109H2.34917Z" fill="white"/>
<path d="M22.0317 23.1109C22.4127 21.0157 22.4762 19.3014 23.3651 19.6189C23.492 18.7935 23.6825 18.476 23.8095 18.1586C23.8095 18.1586 23.746 18.1586 23.5555 18.1586C22.9841 18.1586 22.5397 18.9205 22.5397 18.9205L22.6666 18.2221H21.4603L20.6349 23.1744H22.0317V23.1109Z" fill="white"/>
<path d="M29.9048 18.0319C29.0159 18.0319 28.381 18.2858 28.381 18.2858L28.1905 19.3652C28.1905 19.3652 28.7619 19.1112 29.5873 19.1112C30.0318 19.1112 30.4127 19.1747 30.4127 19.5557C30.4127 19.8096 30.3492 19.8731 30.3492 19.8731C30.3492 19.8731 29.9683 19.8731 29.7778 19.8731C28.6984 19.8731 27.4921 20.3176 27.4921 21.7779C27.4921 22.9207 28.254 23.1747 28.6984 23.1747C29.5873 23.1747 29.9683 22.6033 30.0318 22.6033L29.9683 23.1112H31.1111L31.6191 19.6192C31.6826 18.0954 30.3492 18.0319 29.9048 18.0319ZM30.2222 20.889C30.2222 21.0795 30.0952 22.0953 29.3333 22.0953C28.9524 22.0953 28.8254 21.7779 28.8254 21.5874C28.8254 21.2699 29.0159 20.8255 29.9683 20.8255C30.1587 20.889 30.1587 20.889 30.2222 20.889Z" fill="white"/>
<path d="M32.6984 23.1109C33.0794 21.0157 33.1428 19.3014 34.0317 19.6189C34.1587 18.7935 34.3492 18.476 34.4762 18.1586C34.4762 18.1586 34.4127 18.1586 34.2222 18.1586C33.6508 18.1586 33.2063 18.9205 33.2063 18.9205L33.3333 18.2221H32.127L31.3016 23.1744H32.6984V23.1109Z" fill="white"/>
<path d="M14.2856 22.1587C14.2856 22.9206 14.7301 23.2381 15.3015 23.2381C15.746 23.2381 16.1269 23.1111 16.2539 23.0476L16.4444 21.9683C16.3809 21.9683 16.2539 22.0318 16.1269 22.0318C15.6825 22.0318 15.619 21.7778 15.6825 21.6508L16.0634 19.4286H16.7618L16.9523 18.2222H16.3174L16.4444 17.4603" fill="#DCE5E5"/>
<path d="M17.3333 21.0159C17.3333 22.7937 17.9047 23.2382 18.9206 23.2382C19.873 23.2382 20.2539 23.0477 20.2539 23.0477L20.5079 21.8413C20.5079 21.8413 19.8095 22.1588 19.1746 22.1588C17.7778 22.1588 18.0317 21.1429 18.0317 21.1429H20.6349C20.6349 21.1429 20.8254 20.3175 20.8254 20.0001C20.8254 19.1747 20.3809 18.1588 18.9841 18.1588C17.6508 18.0318 17.3333 19.4286 17.3333 21.0159ZM18.9206 19.1747C19.619 19.1747 19.746 20.0001 19.746 20.0636H18.0952C18.0952 20.0001 18.2222 19.1747 18.9206 19.1747Z" fill="#DCE5E5"/>
<path d="M26.9841 23.0475L27.2381 21.6507C27.2381 21.6507 26.6031 21.9681 26.1587 21.9681C25.2698 21.9681 24.8889 21.2697 24.8889 20.5078C24.8889 18.984 25.6508 18.1586 26.5397 18.1586C27.1746 18.1586 27.6825 18.5396 27.6825 18.5396L27.873 17.2063C27.873 17.2063 27.1111 16.8888 26.4127 16.8888C24.9523 16.8888 24.127 18.1586 24.127 20.5713C24.127 22.1586 24.2539 23.238 25.7777 23.238C26.2857 23.238 26.9841 23.0475 26.9841 23.0475Z" fill="#DCE5E5"/>
<path d="M7.55553 19.4284C7.55553 19.4284 8.12695 19.1744 8.95235 19.1744C9.39679 19.1744 9.77774 19.2379 9.77774 19.6189C9.77774 19.8728 9.71425 19.9363 9.71425 19.9363C9.71425 19.9363 9.3333 19.9363 9.14282 19.9363C8.06346 19.9363 6.85712 20.3808 6.85712 21.8411C6.85712 22.9839 7.61902 23.2379 8.06346 23.2379C8.95235 23.2379 9.3333 22.6665 9.39679 22.6665L9.3333 23.1744H10.4762L10.9841 19.6824C10.9841 18.2221 9.71425 18.1586 9.20631 18.1586L7.55553 19.4284ZM10.1587 20.8887C10.1587 21.0792 9.39679 22.0951 8.63489 22.0951C8.25394 22.0951 8.12695 21.7776 8.12695 21.5871C8.12695 21.2697 8.31743 20.8252 9.26981 20.8252C9.46028 20.8887 10.1587 20.8887 10.1587 20.8887Z" fill="#DCE5E5"/>
<path d="M10.7936 23.0472C10.7936 23.0472 11.1745 23.1742 12.2539 23.1742C12.5714 23.1742 14.1587 23.2377 14.1587 21.5234C14.1587 19.9361 12.6348 20.2536 12.6348 19.6187C12.6348 19.3012 12.8888 19.1742 13.3333 19.1742C13.5237 19.1742 14.2221 19.2377 14.2221 19.2377L14.4126 18.0949C14.4126 18.0949 13.9682 17.9679 13.2063 17.9679C12.2539 17.9679 11.9364 18.3488 11.9364 19.6187C11.9364 21.079 12.8888 20.952 12.8888 21.5234C12.8888 21.9044 12.4444 21.9679 12.1269 21.9679" fill="#DCE5E5"/>
<path d="M37.2698 18.7303C37.2698 18.7303 36.7619 18.0953 36.0635 18.0953C34.9206 18.0953 34.5396 19.4922 34.5396 21.1429C34.5396 22.1588 34.4127 23.2382 35.492 23.2382C36.2539 23.2382 36.6984 22.7302 36.6984 22.7302L36.6349 23.1747H37.9047L38.8571 17.0795L37.2698 18.7303ZM37.2063 20.381C37.2063 21.0794 36.6349 21.9683 35.9365 21.9683C35.492 21.9683 35.2381 21.5874 35.2381 20.9525C35.2381 19.9366 35.6825 19.3017 36.2539 19.3017C36.6984 19.3017 37.2063 19.6191 37.2063 20.381Z" fill="#DCE5E5"/>
<path d="M2.34917 23.1109L3.11108 18.5394L3.23806 23.1109H4.12695L5.77774 18.5394L5.07933 23.1109H6.41266L7.42854 17.0156H5.84124L4.06346 20.7617L3.99997 17.0156H3.30155L1.14282 23.1109H2.34917Z" fill="#DCE5E5"/>
<path d="M20.6984 23.1109H22.0317C22.4127 21.0157 22.4761 19.3014 23.365 19.6189C23.492 18.7935 23.6825 18.476 23.8095 18.1586C23.8095 18.1586 23.746 18.1586 23.5555 18.1586C22.9841 18.1586 22.5396 18.9205 22.5396 18.9205L22.6666 18.2221" fill="#DCE5E5"/>
<path d="M28.1905 19.4284C28.1905 19.4284 28.7619 19.1744 29.5873 19.1744C30.0317 19.1744 30.4127 19.2379 30.4127 19.6189C30.4127 19.8728 30.3492 19.9363 30.3492 19.9363C30.3492 19.9363 29.9683 19.9363 29.7778 19.9363C28.6984 19.9363 27.4921 20.3808 27.4921 21.8411C27.4921 22.9839 28.254 23.2379 28.6984 23.2379C29.5873 23.2379 29.9683 22.6665 30.0317 22.6665L29.9683 23.1744H31.1111L31.6191 19.6824C31.6191 18.2221 30.3492 18.1586 29.8413 18.1586L28.1905 19.4284ZM30.7937 20.8887C30.7937 21.0792 30.0317 22.0951 29.2698 22.0951C28.8889 22.0951 28.7619 21.7776 28.7619 21.5871C28.7619 21.2697 28.9524 20.8252 29.9048 20.8252C30.1587 20.8887 30.7937 20.8887 30.7937 20.8887Z" fill="#DCE5E5"/>
<path d="M31.3651 23.1109H32.6984C33.0793 21.0157 33.1428 19.3014 34.0317 19.6189C34.1587 18.7935 34.3492 18.476 34.4762 18.1586C34.4762 18.1586 34.4127 18.1586 34.2222 18.1586C33.6508 18.1586 33.2063 18.9205 33.2063 18.9205L33.3333 18.2221" fill="#DCE5E5"/>
</svg>
