<svg width="40" height="40" viewBox="0 0 40 40" fill="none" xmlns="http://www.w3.org/2000/svg">
<path d="M30.9206 17.5555H28.7619C28.6349 17.5555 28.5079 17.6825 28.4444 17.8095L27.5555 23.3968C27.5555 23.5238 27.619 23.5873 27.746 23.5873H28.8889C29.0159 23.5873 29.0794 23.5238 29.0794 23.3968L29.3333 21.8095C29.3333 21.6825 29.4603 21.5556 29.6508 21.5556H30.3492C31.8095 21.5556 32.6349 20.8571 32.8254 19.4603C32.9524 18.8889 32.8254 18.3809 32.5714 18.0635C32.1905 17.746 31.619 17.5555 30.9206 17.5555ZM31.1746 19.6508C31.0476 20.4127 30.4762 20.4127 29.9047 20.4127H29.5238L29.7778 18.9524C29.7778 18.8889 29.8413 18.8254 29.9682 18.8254H30.0952C30.4762 18.8254 30.8571 18.8254 31.0476 19.0794C31.1746 19.1428 31.1746 19.3333 31.1746 19.6508Z" fill="#139AD6"/>
<path d="M15.3651 17.5555H13.2063C13.0794 17.5555 12.9524 17.6825 12.8889 17.8095L12 23.3968C12 23.5238 12.0635 23.5873 12.1905 23.5873H13.2063C13.3333 23.5873 13.4603 23.4603 13.5238 23.3333L13.7778 21.8095C13.7778 21.6825 13.9048 21.5556 14.0952 21.5556H14.7936C16.254 21.5556 17.0794 20.8571 17.2698 19.4603C17.3968 18.8889 17.2698 18.3809 17.0159 18.0635C16.6349 17.746 16.127 17.5555 15.3651 17.5555ZM15.619 19.6508C15.4921 20.4127 14.9206 20.4127 14.3492 20.4127H14.0317L14.2857 18.9524C14.2857 18.8889 14.3492 18.8254 14.4762 18.8254H14.6032C14.9841 18.8254 15.3651 18.8254 15.5556 19.0794C15.619 19.1428 15.6825 19.3333 15.619 19.6508Z" fill="#263B80"/>
<path d="M21.9047 19.5873H20.8888C20.8253 19.5873 20.6984 19.6508 20.6984 19.7143L20.6349 20.0318L20.5714 19.9048C20.3174 19.5873 19.873 19.4603 19.365 19.4603C18.2222 19.4603 17.2063 20.3492 17.0158 21.5556C16.8889 22.1905 17.0793 22.7619 17.3968 23.1429C17.7143 23.5238 18.1587 23.6508 18.7301 23.6508C19.6825 23.6508 20.1904 23.0794 20.1904 23.0794L20.1269 23.3969C20.1269 23.5238 20.1904 23.5873 20.3174 23.5873H21.2698C21.3968 23.5873 21.5238 23.4604 21.5872 23.3334L22.1587 19.7778C22.0952 19.7143 21.9682 19.5873 21.9047 19.5873ZM20.4444 21.6191C20.3174 22.1905 19.873 22.635 19.2381 22.635C18.9206 22.635 18.6666 22.508 18.5396 22.381C18.4127 22.1905 18.3492 21.9365 18.3492 21.6191C18.4127 21.0476 18.9206 20.6032 19.492 20.6032C19.8095 20.6032 20 20.7302 20.1904 20.8572C20.3809 21.0476 20.4444 21.3651 20.4444 21.6191Z" fill="#263B80"/>
<path d="M37.3968 19.5874H36.3809C36.3174 19.5874 36.1904 19.6509 36.1904 19.7144L36.1269 20.0319L36.0635 19.9049C35.8095 19.5874 35.365 19.4604 34.8571 19.4604C33.7143 19.4604 32.6984 20.3493 32.5079 21.5557C32.3809 22.1906 32.5714 22.7621 32.8889 23.143C33.2063 23.524 33.6508 23.651 34.2222 23.651C35.1746 23.651 35.6825 23.0795 35.6825 23.0795L35.619 23.397C35.619 23.524 35.6825 23.5875 35.8095 23.5875H36.7619C36.8888 23.5875 37.0158 23.4605 37.0793 23.3335L37.6507 19.7779C37.5873 19.7144 37.5238 19.5874 37.3968 19.5874ZM35.9365 21.6192C35.8095 22.1906 35.365 22.6351 34.7301 22.6351C34.4127 22.6351 34.1587 22.5081 34.0317 22.3811C33.9047 22.1906 33.8412 21.9367 33.8412 21.6192C33.9047 21.0478 34.4127 20.6033 34.9841 20.6033C35.3016 20.6033 35.492 20.7303 35.6825 20.8573C35.9365 21.0478 36 21.3652 35.9365 21.6192Z" fill="#139AD6"/>
<path d="M27.4286 19.5872H26.3492C26.2222 19.5872 26.1587 19.6506 26.0952 19.7141L24.6984 21.8729L24.0635 19.8411C24 19.7141 23.9365 19.6507 23.746 19.6507H22.7301C22.6032 19.6507 22.5397 19.7776 22.5397 19.9046L23.6825 23.2697L22.6032 24.7935C22.5397 24.9205 22.6032 25.1109 22.7301 25.1109H23.746C23.873 25.1109 23.9365 25.0475 24 24.984L27.4921 19.9681C27.6826 19.7776 27.5556 19.5872 27.4286 19.5872Z" fill="#263B80"/>
<path d="M38.6032 17.746L37.7143 23.4603C37.7143 23.5873 37.7778 23.6508 37.9048 23.6508H38.7937C38.9206 23.6508 39.0476 23.5238 39.1111 23.3968L40 17.8095C40 17.6825 39.9365 17.619 39.8095 17.619H38.7937C38.7302 17.5555 38.6667 17.619 38.6032 17.746Z" fill="#139AD6"/>
<path d="M7.30159 15.6508C6.85714 15.1429 6.03175 14.8889 4.88889 14.8889H1.71429C1.52381 14.8889 1.33333 15.0794 1.26984 15.2699L0 23.5873C0 23.7778 0.126984 23.9048 0.253968 23.9048H2.22222L2.73016 20.7937V20.9207C2.79365 20.7302 2.98413 20.5397 3.1746 20.5397H4.12698C5.96825 20.5397 7.36508 19.7778 7.80952 17.6826C7.80952 17.6191 7.80952 17.5556 7.80952 17.4921C7.74603 17.4921 7.74603 17.4921 7.80952 17.4921C7.87302 16.6667 7.74603 16.1588 7.30159 15.6508Z" fill="#263B80"/>
<path d="M7.74602 17.4921C7.74602 17.5556 7.74602 17.6191 7.74602 17.6825C7.30158 19.8413 5.90475 20.5397 4.06348 20.5397H3.1111C2.92063 20.5397 2.73015 20.7302 2.66666 20.9206L2.03174 24.7937C2.03174 24.9206 2.09523 25.0476 2.28571 25.0476H3.9365C4.12698 25.0476 4.31745 24.9206 4.31745 24.7302V24.6667L4.63491 22.6984V22.5714C4.63491 22.381 4.82539 22.254 5.01586 22.254H5.26983C6.85714 22.254 8.12698 21.6191 8.44444 19.7143C8.57142 18.9524 8.50793 18.254 8.12698 17.8095C8.06348 17.6825 7.9365 17.5556 7.74602 17.4921Z" fill="#139AD6"/>
<path d="M7.30159 17.3017C7.2381 17.3017 7.17461 17.2382 7.11111 17.2382C7.04762 17.2382 6.98413 17.2382 6.92064 17.1747C6.66667 17.1112 6.4127 17.1112 6.09524 17.1112H3.61905C3.55556 17.1112 3.49207 17.1112 3.42858 17.1747C3.30159 17.2382 3.2381 17.3652 3.2381 17.4922L2.73016 20.7937V20.9207C2.79366 20.7303 2.98413 20.5398 3.17461 20.5398H4.12699C5.96826 20.5398 7.36508 19.7779 7.80953 17.6826C7.80953 17.6191 7.80953 17.5556 7.87302 17.4922C7.74604 17.4287 7.68254 17.3652 7.55556 17.3652C7.36508 17.3017 7.36508 17.3017 7.30159 17.3017Z" fill="#232C65"/>
</svg>
