<svg width="45" height="44" viewBox="0 0 45 44" fill="none" xmlns="http://www.w3.org/2000/svg">
<g clip-path="url(#clip0)">
<path d="M10.302 6.47052C4.91593 6.47052 0.534607 10.8473 0.534607 16.2278C0.534607 21.4183 4.61215 25.6755 9.73545 25.9696C9.82416 26.9263 9.75761 29.5306 7.25945 33.1534C7.0706 33.4267 7.10488 33.7953 7.33942 34.0296C8.3617 35.0508 8.99348 35.6939 9.43566 36.1438C10.0144 36.7319 10.2785 37.0005 10.665 37.351C10.796 37.4698 10.9613 37.5295 11.1274 37.5295C11.2886 37.5295 11.4492 37.4731 11.579 37.361C15.9321 33.5771 20.7678 25.7587 20.0681 16.1781C19.6582 10.5532 15.551 6.47052 10.302 6.47052Z" fill="#5981A6"/>
<path d="M44.5112 16.1781C44.0999 10.5539 39.9921 6.47052 34.7445 6.47052C29.3584 6.47052 24.9763 10.8473 24.9763 16.2278C24.9763 21.4183 29.0546 25.6755 34.1786 25.9696C34.2673 26.9256 34.2 29.5286 31.7013 33.1534C31.5124 33.4267 31.5467 33.7953 31.7812 34.0296C32.7994 35.0467 33.4299 35.6886 33.8721 36.1377C34.4534 36.7299 34.7189 36.9998 35.1074 37.3516C35.2384 37.4698 35.4044 37.5295 35.5698 37.5295C35.7311 37.5295 35.8917 37.4731 36.0214 37.3603C40.3745 33.5764 45.2102 25.7581 44.5112 16.1781Z" fill="#5981A6"/>
</g>
<defs>
<clipPath id="clip0">
<rect width="44.0459" height="44" fill="white" transform="translate(0.53389)"/>
</clipPath>
</defs>
</svg>
