<svg width="16" height="20" viewBox="0 0 16 20" fill="none" xmlns="http://www.w3.org/2000/svg">
<path d="M2.43794 13.8647L7.76116 19.5344C7.79184 19.5671 7.82891 19.5931 7.87005 19.6109C7.9112 19.6288 7.95557 19.6379 8.00041 19.6379C8.04525 19.6379 8.08961 19.6288 8.13076 19.6109C8.17191 19.5931 8.20897 19.5671 8.23966 19.5344L13.5625 13.8647C14.3772 12.9969 14.9772 12.0446 15.3459 11.0342C15.7222 10.0197 15.8809 8.93755 15.8118 7.8578C15.6821 5.88487 14.8426 4.02557 13.4485 2.62355C12.7338 1.90666 11.8846 1.33786 10.9497 0.949757C10.0148 0.561654 9.01249 0.361877 8.00022 0.361877C6.98795 0.361877 5.98563 0.561654 5.05071 0.949757C4.11579 1.33786 3.26666 1.90666 2.55199 2.62355C1.15786 4.02559 0.318351 5.88487 0.188595 7.8578C0.119518 8.93755 0.278281 10.0197 0.654579 11.0342C1.0233 12.0447 1.6233 12.997 2.43794 13.8647ZM0.843345 7.90159C0.96255 6.0868 1.73463 4.37651 3.01689 3.08677C3.6706 2.43106 4.44728 1.91081 5.30242 1.55584C6.15756 1.20086 7.07435 1.01813 8.00024 1.01813C8.92614 1.01813 9.84293 1.20086 10.6981 1.55584C11.5532 1.91081 12.3299 2.43106 12.9836 3.08677C14.2658 4.37651 15.0379 6.08681 15.1571 7.90159C15.2199 8.89006 15.0742 9.88069 14.7294 10.8092C14.3913 11.7359 13.8377 12.6128 13.084 13.4155L8.00022 18.8306L2.91639 13.4155C2.16278 12.6129 1.60924 11.736 1.27108 10.8093C0.926224 9.88076 0.780492 8.89009 0.843345 7.90159Z" fill="#9AA4B0"/>
<path d="M7.12083 9.45014C7.18145 9.51076 7.26338 9.54524 7.3491 9.54623C7.43481 9.54721 7.51751 9.5146 7.5795 9.45539L10.5704 6.59859C10.6016 6.56883 10.6266 6.53322 10.644 6.4938C10.6614 6.45437 10.6708 6.41191 10.6718 6.36883C10.6728 6.32575 10.6653 6.28289 10.6497 6.24271C10.6342 6.20253 10.6108 6.16581 10.5811 6.13465C10.5513 6.10348 10.5157 6.07849 10.4763 6.06109C10.4369 6.04369 10.3944 6.03422 10.3513 6.03323C10.3082 6.03224 10.2654 6.03974 10.2252 6.05532C10.185 6.07089 10.1483 6.09422 10.1171 6.12398L7.35811 8.75934L5.8883 7.28953C5.82676 7.22799 5.7433 7.19342 5.65627 7.19342C5.56924 7.19342 5.48577 7.22799 5.42424 7.28953C5.3627 7.35107 5.32812 7.43453 5.32812 7.52156C5.32812 7.60859 5.3627 7.69205 5.42424 7.75359L7.12083 9.45014Z" fill="#9AA4B0"/>
</svg>
