<svg width="16" height="20" viewBox="0 0 16 20" fill="none" xmlns="http://www.w3.org/2000/svg">
<path d="M2.43794 13.8647L7.76116 19.5344C7.79184 19.5671 7.82891 19.5932 7.87005 19.611C7.9112 19.6288 7.95557 19.638 8.00041 19.638C8.04525 19.638 8.08961 19.6288 8.13076 19.611C8.17191 19.5932 8.20897 19.5671 8.23966 19.5344L13.5625 13.8647C14.3772 12.997 14.9772 12.0446 15.3459 11.0342C15.7222 10.0198 15.8809 8.93758 15.8118 7.85784C15.6821 5.8849 14.8426 4.02561 13.4485 2.62358C12.7338 1.90669 11.8846 1.33789 10.9497 0.949788C10.0148 0.561685 9.01249 0.361908 8.00022 0.361908C6.98795 0.361908 5.98563 0.561685 5.05071 0.949788C4.11579 1.33789 3.26666 1.90669 2.55199 2.62358C1.15786 4.02562 0.318351 5.8849 0.188595 7.85784C0.119518 8.93758 0.278281 10.0198 0.654579 11.0342C1.0233 12.0447 1.6233 12.9971 2.43794 13.8647ZM0.843345 7.90162C0.96255 6.08683 1.73463 4.37654 3.01689 3.0868C3.6706 2.43109 4.44728 1.91084 5.30242 1.55587C6.15756 1.20089 7.07435 1.01816 8.00024 1.01816C8.92614 1.01816 9.84293 1.20089 10.6981 1.55587C11.5532 1.91084 12.3299 2.43109 12.9836 3.0868C14.2658 4.37654 15.0379 6.08684 15.1571 7.90162C15.2199 8.89009 15.0742 9.88072 14.7294 10.8092C14.3913 11.7359 13.8377 12.6128 13.084 13.4155L8.00022 18.8306L2.91639 13.4156C2.16278 12.6129 1.60924 11.736 1.27108 10.8093C0.926224 9.88079 0.780492 8.89012 0.843345 7.90162Z" fill="#9AA4B0"/>
</svg>
