<svg width="42" height="18" viewBox="0 0 42 18" fill="none" xmlns="http://www.w3.org/2000/svg">
<path d="M0 10H11" stroke="#9AA4B0" stroke-dasharray="3 3"/>
<path d="M31 10H42" stroke="#9AA4B0" stroke-dasharray="3 3"/>
<path d="M16.8283 11.8985L20.8207 16.1508C20.8437 16.1753 20.8715 16.1949 20.9024 16.2082C20.9332 16.2216 20.9665 16.2285 21.0001 16.2285C21.0338 16.2285 21.067 16.2216 21.0979 16.2082C21.1287 16.1949 21.1565 16.1753 21.1796 16.1508L25.1717 11.8985C25.7827 11.2477 26.2327 10.5335 26.5092 9.77563C26.7914 9.01482 26.9105 8.20317 26.8587 7.39337C26.7614 5.91366 26.1318 4.5192 25.0862 3.46768C24.5502 2.93001 23.9133 2.50341 23.2121 2.21233C22.5109 1.92126 21.7592 1.77142 21 1.77142C20.2408 1.77142 19.489 1.92126 18.7879 2.21233C18.0867 2.50341 17.4498 2.93001 16.9138 3.46768C15.8682 4.51921 15.2386 5.91367 15.1413 7.39337C15.0895 8.20318 15.2085 9.01483 15.4908 9.77563C15.7673 10.5335 16.2173 11.2478 16.8283 11.8985ZM15.6323 7.4262C15.7217 6.06512 16.3008 4.7824 17.2625 3.81509C17.7528 3.32331 18.3353 2.93313 18.9766 2.66689C19.618 2.40066 20.3056 2.26362 21 2.26362C21.6944 2.26362 22.382 2.40066 23.0234 2.66689C23.6647 2.93313 24.2472 3.32331 24.7375 3.81509C25.6992 4.7824 26.2782 6.06512 26.3676 7.4262C26.4147 8.16756 26.3054 8.91053 26.0468 9.60691C25.7933 10.3019 25.3781 10.9596 24.8129 11.5616L21 15.623L17.1871 11.5617C16.6219 10.9597 16.2067 10.302 15.9531 9.60698C15.6945 8.91059 15.5852 8.16758 15.6323 7.4262Z" fill="#9AA4B0"/>
<path d="M20.3406 8.58762C20.3861 8.63308 20.4475 8.65895 20.5118 8.65968C20.5761 8.66042 20.6381 8.63597 20.6846 8.59156L22.9278 6.44896C22.9512 6.42664 22.9699 6.39993 22.983 6.37036C22.996 6.3408 23.0031 6.30895 23.0039 6.27664C23.0046 6.24433 22.999 6.21218 22.9873 6.18205C22.9756 6.15191 22.9581 6.12437 22.9358 6.101C22.9135 6.07763 22.8868 6.05888 22.8572 6.04583C22.8276 6.03278 22.7958 6.02568 22.7635 6.02494C22.7312 6.02419 22.699 6.02982 22.6689 6.0415C22.6388 6.05318 22.6112 6.07068 22.5878 6.093L20.5186 8.06952L19.4162 6.96716C19.3701 6.92101 19.3075 6.89508 19.2422 6.89508C19.1769 6.89508 19.1143 6.92101 19.0682 6.96716C19.022 7.01332 18.9961 7.07591 18.9961 7.14119C18.9961 7.20646 19.022 7.26905 19.0682 7.31521L20.3406 8.58762Z" fill="#9AA4B0"/>
</svg>
