<svg width="40" height="40" viewBox="0 0 40 40" fill="none" xmlns="http://www.w3.org/2000/svg">
<g clip-path="url(#clip0)">
<path d="M14.6667 25.746L16.6984 14.3174H19.873L17.9048 25.746H14.6667Z" fill="#3C58BF"/>
<path d="M14.6667 25.746L17.2699 14.3174H19.873L17.9048 25.746H14.6667Z" fill="#3C58BF"/>
<path d="M29.3968 14.4445C28.7619 14.1905 27.746 13.9365 26.4762 13.9365C23.3016 13.9365 21.0159 15.5238 21.0159 17.8095C21.0159 19.5238 22.6032 20.4127 23.873 20.9841C25.1429 21.5556 25.5238 21.9365 25.5238 22.4445C25.5238 23.2064 24.508 23.5873 23.6191 23.5873C22.3492 23.5873 21.6508 23.3968 20.5714 22.9524L20.127 22.7619L19.6826 25.3651C20.4445 25.6826 21.8413 26 23.3016 26C26.6667 26 28.8889 24.4127 28.8889 22C28.8889 20.6667 28.0635 19.6508 26.1587 18.8254C25.0159 18.254 24.3175 17.9365 24.3175 17.3651C24.3175 16.8572 24.8889 16.3492 26.1587 16.3492C27.2381 16.3492 28 16.5397 28.5714 16.7937L28.8889 16.9207L29.3968 14.4445Z" fill="#3C58BF"/>
<path d="M29.3968 14.4445C28.7619 14.1905 27.746 13.9365 26.4762 13.9365C23.3016 13.9365 21.5873 15.5238 21.5873 17.8095C21.5873 19.5238 22.6032 20.4127 23.873 20.9841C25.1429 21.5556 25.5238 21.9365 25.5238 22.4445C25.5238 23.2064 24.508 23.5873 23.6191 23.5873C22.3492 23.5873 21.6508 23.3968 20.5714 22.9524L20.127 22.7619L19.6826 25.3651C20.4445 25.6826 21.8413 26 23.3016 26C26.6667 26 28.8889 24.4127 28.8889 22C28.8889 20.6667 28.0635 19.6508 26.1587 18.8254C25.0159 18.254 24.3175 17.9365 24.3175 17.3651C24.3175 16.8572 24.8889 16.3492 26.1587 16.3492C27.2381 16.3492 28 16.5397 28.5714 16.7937L28.8889 16.9207L29.3968 14.4445Z" fill="#3C58BF"/>
<path d="M34.8572 14.3174C34.0953 14.3174 33.5238 14.3809 33.2064 15.1428L28.4445 25.746H31.873L32.508 23.8412H36.5714L36.9524 25.746H40L37.3333 14.3174H34.8572ZM33.3968 21.9364C33.5873 21.365 34.6667 18.5714 34.6667 18.5714C34.6667 18.5714 34.9206 17.8729 35.1111 17.4285L35.3016 18.5079C35.3016 18.5079 35.9365 21.365 36.0635 21.9999H33.3968V21.9364Z" fill="#3C58BF"/>
<path d="M35.6191 14.3174C34.8572 14.3174 34.2857 14.3809 33.9683 15.1428L28.4445 25.746H31.873L32.508 23.8412H36.5714L36.9524 25.746H40L37.3333 14.3174H35.6191ZM33.3968 21.9364C33.6508 21.3015 34.6667 18.5714 34.6667 18.5714C34.6667 18.5714 34.9206 17.8729 35.1111 17.4285L35.3016 18.5079C35.3016 18.5079 35.9365 21.365 36.0635 21.9999H33.3968V21.9364Z" fill="#3C58BF"/>
<path d="M8.82538 22.3175L8.50792 20.6667C7.93649 18.7619 6.09522 16.6667 4.06348 15.6508L6.92062 25.8095H10.3492L15.492 14.381H12.0635L8.82538 22.3175Z" fill="#3C58BF"/>
<path d="M8.82538 22.3175L8.50792 20.6667C7.93649 18.7619 6.09522 16.6667 4.06348 15.6508L6.92062 25.8095H10.3492L15.492 14.381H12.6984L8.82538 22.3175Z" fill="#3C58BF"/>
<path d="M0 14.3174L0.571429 14.4444C4.63492 15.3967 7.42857 17.8094 8.50794 20.6666L7.36508 15.2698C7.1746 14.5079 6.60318 14.3174 5.90476 14.3174H0Z" fill="#FFBC00"/>
<path d="M0 14.3174C4.06349 15.2698 7.42857 17.746 8.50794 20.6031L7.42857 16.0952C7.2381 15.3333 6.60318 14.8888 5.90476 14.8888L0 14.3174Z" fill="#F7981D"/>
<path d="M0 14.3174C4.06349 15.2698 7.42857 17.746 8.50794 20.6031L7.74603 18.1269C7.55556 17.365 7.30159 16.6031 6.4127 16.2856L0 14.3174Z" fill="#ED7C00"/>
<path d="M12 21.9365L9.8413 19.7778L8.82543 22.1905L8.57146 20.6032C8.00003 18.6984 6.15876 16.6032 4.12701 15.5873L6.98416 25.746H10.4127L12 21.9365Z" fill="#293688"/>
<path d="M17.9048 25.746L15.1746 22.9524L14.6667 25.746H17.9048Z" fill="#293688"/>
<path d="M25.2064 21.8094C25.4603 22.0634 25.5873 22.2539 25.5238 22.5079C25.5238 23.2698 24.508 23.6507 23.6191 23.6507C22.3492 23.6507 21.6508 23.4602 20.5714 23.0158L20.127 22.8253L19.6826 25.4285C20.4445 25.746 21.8413 26.0634 23.3016 26.0634C25.3334 26.0634 26.9841 25.492 27.9365 24.4761L25.2064 21.8094Z" fill="#293688"/>
<path d="M28.8889 25.7459H31.873L32.508 23.8412H36.5715L36.9524 25.7459H40L38.9207 21.111L35.1111 17.4285L35.3016 18.4443C35.3016 18.4443 35.9365 21.3015 36.0635 21.9364H33.3969C33.6508 21.3015 34.6667 18.5713 34.6667 18.5713C34.6667 18.5713 34.9207 17.8729 35.1111 17.4285" fill="#293688"/>
</g>
<defs>
<clipPath id="clip0">
<rect width="40" height="40" fill="white"/>
</clipPath>
</defs>
</svg>
