<svg width="17" height="17" viewBox="0 0 17 17" fill="none" xmlns="http://www.w3.org/2000/svg">
<path d="M7.67814 0.966258C8.0357 0.191866 9.13636 0.191864 9.49392 0.966256L11.1758 4.60868C11.3215 4.92434 11.6208 5.14164 11.966 5.18254L15.9517 5.65461C16.7994 5.75502 17.1397 6.80296 16.5127 7.38221L13.5674 10.1031C13.3117 10.3393 13.1973 10.6914 13.2652 11.0327L14.0472 14.9645C14.2136 15.8013 13.3231 16.4488 12.5784 16.0324L9.07408 14.0729C8.77081 13.9033 8.40125 13.9033 8.09797 14.0729L4.5937 16.0324C3.849 16.4488 2.95841 15.8013 3.12486 14.9645L3.90691 11.0327C3.9748 10.6914 3.86034 10.3393 3.60469 10.1031L0.659364 7.38221C0.0323426 6.80296 0.37261 5.75502 1.22031 5.65461L5.20603 5.18254C5.5513 5.14164 5.85055 4.92434 5.9963 4.60868L7.67814 0.966258Z" fill="#FDC167"/>
</svg>
